<?xml version="1.0" standalone="no"?>
<!DOCTYPE svg PUBLIC "-//W3C//DTD SVG 1.1//EN" "http://www.w3.org/Graphics/SVG/1.1/DTD/svg11.dtd" >
<svg>
<metadata>
Created by FontForge 20090622 at Sun Jun 18 11:01:34 2017
 By deploy user
&#194;&#169; phitradesign fonts 2016 ALL RIGHTS RESERVED, FREE FOR PERSONAL USE ONLY
</metadata>
<defs>
<font id="GeorginaDemo-Regular" horiz-adv-x="600" >
  <font-face 
    font-family="Georgina Demo"
    font-weight="400"
    font-stretch="normal"
    units-per-em="1000"
    panose-1="0 0 5 0 0 0 0 0 0 0"
    ascent="800"
    descent="-200"
    x-height="700"
    cap-height="700"
    bbox="-23 -228 1370 840"
    underline-thickness="50"
    underline-position="-50"
    unicode-range="U+0020-U+2265"
  />
<missing-glyph horiz-adv-x="500" 
d="M410 -200h-317v1000h317v-1000zM167 118v-113h166v113h-166zM300 38h-100v47h100v-47zM233 291v-56h34v23h33v-47h-100v80h-33v-113h166v113h-100zM300 413v-66h-133v-34h166v100h-33zM167 473v-33h66v-37h-66v-33h100v70h66v33h-166zM233 534h-33v36h33v-36zM167 604
v-104h166v34h-66v70h-100zM168 733v-33h65v-37h-66v-33h166v33h-66v37h66v33h-165zM167 -18v-33h70l-70 -47v-33h166v33h-102l70 47h32v33h-166z" />
    <glyph glyph-name=".notdef" horiz-adv-x="500" 
d="M410 -200h-317v1000h317v-1000zM167 118v-113h166v113h-166zM300 38h-100v47h100v-47zM233 291v-56h34v23h33v-47h-100v80h-33v-113h166v113h-100zM300 413v-66h-133v-34h166v100h-33zM167 473v-33h66v-37h-66v-33h100v70h66v33h-166zM233 534h-33v36h33v-36zM167 604
v-104h166v34h-66v70h-100zM168 733v-33h65v-37h-66v-33h166v33h-66v37h66v33h-165zM167 -18v-33h70l-70 -47v-33h166v33h-102l70 47h32v33h-166z" />
    <glyph glyph-name="space" unicode=" " horiz-adv-x="350" 
 />
    <glyph glyph-name="A" unicode="A" horiz-adv-x="751" 
d="M271 663q7 21 23 29.5t27 7.5h105q27 0 37.5 -7.5t16.5 -29.5l230 -643q1 -2 1 -7t-3.5 -8.5t-9.5 -3.5h-74q-19 0 -26.5 4.5t-10.5 14.5l-35 99h-217q-18 0 -24 11.5t-6 23.5v43q0 30 30 30h178l-125 348q-3 8 -11 8q-9 0 -12 -8l-203 -555q-3 -19 -33 -19h-75
q-8 0 -12 5.5t-1 13.5z" />
    <glyph glyph-name="B" unicode="B" horiz-adv-x="698" 
d="M207 3h-11h-1l-9 1l-83 3q-10 0 -16.5 7t-6.5 18v639q0 11 7 19t17 9l91 9l11 1q34 2 48 2q135 0 206 -61q26 -23 39.5 -48.5t13.5 -25t9 -45.5q3 -54 -13 -94q37 -18 62 -40q30 -29 46 -63q13 -25 17 -46.5t4 -30.5q3 -61 -13 -106q-15 -44 -47 -74q-57 -54 -166 -70
q-55 -7 -117 -7q-47 0 -88 3zM329 98q115 7 166 50q37 31 37 79l-1 13v1q0 7 -2.5 20t-11.5 29q-24 42 -80 57q-28 -17 -69 -28l-6 -1q-8 0 -14.5 5t-8.5 13l-15 61v4q0 6 3.5 11.5t9.5 7.5q23 7 40 22q32 29 27 82v1q0 9 -5 25t-23 32q-24 21 -60 28q-25 6 -57 6
q-15 0 -59 -4v-199v-104v-206q12 -2 37.5 -4t56.5 -2q23 0 35 1z" />
    <glyph glyph-name="C" unicode="C" horiz-adv-x="706" 
d="M239.5 39.5q-82.5 48.5 -131 131t-48.5 180.5t48.5 180.5t131 131t179.5 48.5q52 0 101 -14.5t90 -41.5q7 -4 12.5 -11t5.5 -17q0 -14 -13 -28q-7 -9 -23 -20t-36 -11q-15 0 -30 6t-18 7q-40 17 -89 17q-68 0 -125.5 -33.5t-91 -90.5t-33.5 -125t33.5 -125.5t91 -91
t125.5 -33.5q72 0 128 36l23 14q4 2 12.5 7.5t19.5 5.5t24 -13l32 -27q8 -10 8 -19t-8 -22q-51 -44 -112.5 -67t-126.5 -23q-97 0 -179.5 48.5z" />
    <glyph glyph-name="D" unicode="D" horiz-adv-x="722" 
d="M279 -3.5q-9 6.5 -13 23.5q-1 4 -1 19l1 32q0 6 6 15t24 10q105 3 163.5 46.5t78.5 93t22 85.5q1 12 1 33q0 147 -84 202.5t-196 55.5q-32 0 -58.5 -3t-37.5 -6v-497v-88q0 -5 -4 -13.5t-16 -9.5t-32 -1q-12 0 -19.5 0.5t-9.5 0.5q-24 0 -24 30v644q0 6 4 11.5t10 7.5
q7 2 32 7t66 9.5t86 4.5q162 0 278 -78.5t116 -281.5q0 -23 -1 -35q0 -37 -19 -104.5t-102.5 -139t-252.5 -79.5q-9 -1 -18 5.5z" />
    <glyph glyph-name="E" unicode="E" horiz-adv-x="634" 
d="M86 4q-6 6 -6 14v664q0 8 6 14t14 6h442q9 0 15.5 -6t6.5 -14v-70q0 -8 -6.5 -14t-15.5 -6h-352v-484h352q9 0 15.5 -6t6.5 -14v-70q0 -8 -6.5 -14t-15.5 -6h-442q-8 0 -14 6zM250.5 306q-4.5 5 -4.5 11v73q0 7 4.5 11.5t10.5 4.5h260q6 0 10 -4.5t4 -11.5v-73
q0 -6 -4 -11t-10 -5h-260q-6 0 -10.5 5z" />
    <glyph glyph-name="F" unicode="F" horiz-adv-x="603" 
d="M80 680q0 9 6 15t15 6h441q9 0 15 -6t6 -15v-68q0 -9 -6 -15t-15 -6h-352v-573q0 -9 -6 -15t-14 -6h-69q-9 0 -15 6t-6 15v662zM239 390q0 7 4.5 11.5t10.5 4.5h260q6 0 10 -4.5t4 -11.5v-73q0 -6 -4 -11t-10 -5h-260q-6 0 -10.5 5t-4.5 11v73z" />
    <glyph glyph-name="G" unicode="G" horiz-adv-x="812" 
d="M238 46q-82 48 -130 129.5t-48 178.5t48 178.5t130 129.5t179 48q94 0 175 -45t128 -122q4 -7 4 -13t-3.5 -9.5l-4.5 -4.5l-67 -28q-1 0 -3 -0.5t-6 -0.5q-14 0 -25 14q-33 47 -86 74.5t-114 27.5q-66 0 -123 -33t-90 -90t-33 -124q0 -66 33.5 -122.5t90 -89.5t122.5 -33
q62 0 115 28.5t88 76.5h92q5 0 8.5 -3t3.5 -8v-194q0 -5 -3.5 -8t-8.5 -3h-85q-5 0 -8.5 3t-3.5 8v49q-77 -62 -196 -62q-97 0 -179 48zM395 272q-5 5 -5 12v73q0 7 5 12.5t12 5.5h322q7 0 12 -5.5t5 -12.5v-73q0 -7 -5 -12t-12 -5h-322q-7 0 -12 5z" />
    <glyph glyph-name="H" unicode="H" horiz-adv-x="720" 
d="M80 679q0 9 6.5 15t15.5 6h75q10 0 16.5 -6t6.5 -15v-655q0 -9 -6.5 -15t-16.5 -6h-75q-9 0 -15.5 6t-6.5 15v655zM244 404q0 7 5 12.5t12 5.5h260v257q0 9 6.5 15t16.5 6h74q9 0 15.5 -6t6.5 -15v-655q0 -9 -6.5 -15t-15.5 -6h-74q-10 0 -16.5 6t-6.5 15v283h-260
q-7 0 -12 5.5t-5 14.5v77z" />
    <glyph glyph-name="I" unicode="I" horiz-adv-x="317" 
d="M107.5 7.5q-7.5 7.5 -7.5 18.5v648q0 11 7.5 18.5t18.5 7.5h66q10 0 17.5 -7.5t7.5 -18.5v-648q0 -11 -7.5 -18.5t-17.5 -7.5h-66q-11 0 -18.5 7.5z" />
    <glyph glyph-name="J" unicode="J" horiz-adv-x="328" 
d="M92.5 -221.5q-7.5 6.5 -7.5 8.5l-39 57q-1 1 -3.5 5t-2.5 10q0 14 15 25q39 32 52 68.5t13 58.5v672q0 9 7 15.5t15 6.5h74q9 0 15.5 -6.5t6.5 -15.5v-695v-2q-2 -131 -106 -206q-11 -8 -22 -8q-10 0 -17.5 6.5z" />
    <glyph glyph-name="K" unicode="K" horiz-adv-x="758" 
d="M80 680q0 9 6.5 15t15.5 6h67q9 0 15.5 -6t6.5 -15v-470l309 474q5 7 15 12t19 5h94q14 0 14 -10q0 -4 -3 -9l-444 -672l-7 -6l-5 -3l-4 -1l-10 -1h-67q-9 0 -15.5 6.5t-6.5 15.5v659zM437 280l46 65q5 7 11 7q8 0 14 -9l197 -325q3 -4 3 -9q0 -4 -3 -6.5t-8 -2.5h-90
q-8 0 -17.5 5.5t-14.5 12.5l-139 227q-4 10 -4 17q0 10 5 18z" />
    <glyph glyph-name="L" unicode="L" horiz-adv-x="543" 
d="M86.5 8q-6.5 6 -6.5 15v658q0 9 6.5 15t14.5 6h69q8 0 14 -6t6 -15v-569h307q7 0 11.5 -4.5t4.5 -11.5v-78q0 -7 -4.5 -11.5t-11.5 -4.5h-396q-8 0 -14.5 6z" />
    <glyph glyph-name="M" unicode="M" horiz-adv-x="881" 
d="M774.5 694.5q6.5 -6.5 6.5 -14.5v-658q0 -9 -6.5 -15t-14.5 -6h-69q-9 0 -15.5 6.5t-6.5 14.5v402l-117 -245q-3 -6 -10 -6t-10 6l-47 99q-2 8 -2 11q0 4 2 10l186 388v2l1 1q3 8 14 10q2 1 5 1h69q8 0 14.5 -6.5zM500 83q4 -5 0 -11v0q-2 -5 -7.5 -8.5t-11.5 -2.5v0h-80
v0h-2v0q-6 0 -11 3t-7 8l-169 354v-404q0 -8 -6.5 -14.5t-15.5 -6.5h-69q-9 0 -15 6t-6 15v658q0 8 6 14.5t15 6.5h69h1q6 0 11.5 -3t7.5 -8l231 -483v1z" />
    <glyph glyph-name="N" unicode="N" horiz-adv-x="839" 
d="M100 678q0 12 7 19t19 7h68q9 0 17 -8t8 -18v-657q0 -8 -9 -17t-16 -9h-68q-10 0 -18 8t-8 18v657zM265 624q0 15 7 21.5t18 6.5q7 0 14 -2.5t10 -6.5l306 -310v345q0 12 7 19t19 7h68q9 0 17 -8t8 -18v-657q0 -8 -9 -17t-16 -9h-68q-10 0 -18 8t-8 18v146l-339 333
q-6 6 -11 19t-5 19v86z" />
    <glyph glyph-name="O" unicode="O" horiz-adv-x="843" 
d="M240.5 38.5q-83.5 48.5 -132 132t-48.5 181.5t48.5 181t132 131.5t181.5 48.5t181 -48.5t131.5 -131.5t48.5 -181t-48.5 -181.5t-131.5 -132t-181 -48.5t-181.5 48.5zM545 138.5q57 33.5 90.5 91t33.5 124.5q0 68 -33.5 125.5t-90.5 91t-125 33.5t-125.5 -33.5t-91 -91
t-33.5 -125.5q0 -67 33.5 -124.5t91 -91t125.5 -33.5t125 33.5z" />
    <glyph glyph-name="P" unicode="P" horiz-adv-x="654" 
d="M86.5 5.5q-6.5 6.5 -6.5 16.5v644q0 8 5.5 14t13.5 8q1 0 22.5 4.5t63.5 8.5t82 4q143 0 245 -59t102 -211q0 -16 -1 -25q0 -23 -19 -75.5t-89.5 -106t-209.5 -59.5q-22 -1 -26.5 8.5t-4.5 18.5v54q0 6 5 15t21 9q129 1 163.5 54.5t34.5 93.5q1 8 1 22q0 92 -58.5 127.5
t-139.5 35.5q-31 0 -56 -3.5t-32 -5.5l1 1v-321h-1h1v-256q0 -10 -6.5 -16.5t-16.5 -6.5h-78q-10 0 -16.5 6.5z" />
    <glyph glyph-name="Q" unicode="Q" horiz-adv-x="871" 
d="M237.5 40q-81.5 49 -129.5 132t-48 180q0 98 49 181.5t132.5 132.5t181.5 49t181.5 -49t132.5 -132.5t49 -181.5q0 -75 -29 -142t-81 -117h127q8 0 13 -5.5t5 -13.5v-67q0 -8 -5 -13t-13 -5h-384h-3q-97 2 -178.5 51zM546.5 138q57.5 34 91 91.5t33.5 125.5t-33.5 125.5
t-91 91t-125.5 33.5t-125.5 -33.5t-91 -91t-33.5 -125.5t33.5 -125.5t91 -91.5t125.5 -34t125.5 34z" />
    <glyph glyph-name="R" unicode="R" horiz-adv-x="673" 
d="M80 667q0 8 5.5 14t13.5 8q43 7 77 11.5t89 4.5q143 0 245.5 -59t102.5 -212q0 -16 -1 -25q0 -11 -6 -39t-29.5 -67t-68.5 -70q57 -42 71 -105.5t14 -106.5q0 -9 -7 -15t-16 -6h-64q-2 0 -8.5 0.5t-13 6.5t-7.5 20q-5 87 -31 120.5t-56 35.5q-56 -12 -97 -12
q-20 0 -24.5 8.5t-4.5 16.5v55q0 6 4.5 15t19.5 9q129 0 165 54t36 93q1 7 1 20q0 94 -59.5 130t-142.5 36q-30 0 -54.5 -3.5l-31.5 -4.5v-578q0 -9 -6.5 -15.5t-15.5 -6.5h-78q-9 0 -15.5 6.5t-6.5 15.5v645z" />
    <glyph glyph-name="S" unicode="S" horiz-adv-x="647" 
d="M571 99q-25 -44 -73 -75q-30 -18 -74 -30t-103 -11h-12q-50 3 -98 17t-85 37q-49 27 -71 64q-6 8 -6 16t4 14.5t11 10.5q6 4 21 15t26 17q10 6 20 5q8 -4 15 -12q13 -22 40 -38q31 -19 71 -29t80 -10q65 0 105 25q23 14 33 33t10 48q0 23 -10 37.5t-38.5 27t-83.5 25.5
q-83 19 -144 43q-67 27 -100.5 76t-33.5 106q0 29 7 51q18 64 77 108.5t147 44.5q11 0 33 -2q90 -9 143 -45.5t78 -85.5q5 -9 10 -22q2 -3 2 -10t-4 -13.5t-10 -9.5l-52 -26q-8 -5 -23 -3q-10 6 -13 15q-2 6 -9 20q-21 36 -60 55t-94 19q-44 0 -79 -19q-30 -19 -38 -52
q-3 -10 -3 -23q0 -26 16 -48t49 -35q46 -17 131 -39q48 -11 81 -22.5t58 -27.5q74 -45 74 -145q0 -53 -25 -97z" />
    <glyph glyph-name="T" unicode="T" horiz-adv-x="601" 
d="M247 5.5q-5 5.5 -5 13.5v512q0 8 5 13t13 5h75q7 0 12.5 -5t5.5 -13v-512q0 -8 -5.5 -13.5t-12.5 -5.5h-75q-8 0 -13 5.5zM46 598q-6 6 -6 14v68q0 8 6 14t15 6h480q8 0 14 -6t6 -14v-68q0 -8 -6 -14t-14 -6h-480q-9 0 -15 6z" />
    <glyph glyph-name="U" unicode="U" horiz-adv-x="700" 
d="M630 245v-3q0 -72 -37.5 -133t-101.5 -97t-140 -36t-140.5 36t-102 97t-37.5 133v4l-1 435q0 8 6 13.5t14 5.5h81q8 0 13.5 -5.5t5.5 -13.5v-221l2 -220q0 -40 21.5 -74.5t58 -55t79.5 -20.5t79.5 20.5t58 56t21.5 76.5l1 218v214q0 10 5.5 18t18.5 7h75q8 0 13.5 -5.5
t5.5 -13.5l1 -435v-1z" />
    <glyph glyph-name="V" unicode="V" horiz-adv-x="717" 
d="M699.5 695q7.5 -8 7.5 -18q0 -8 -2 -11l-296 -649q-3 -8 -10 -12.5t-16 -4.5h-49q-8 0 -15 4.5t-10 12.5l-296 646q-2 4 -2 12q0 12 8 20t20 8h65q9 0 16 -4.5t10 -12.5l229 -483l225 483q3 8 10 12.5t15 4.5h72q11 0 18.5 -8z" />
    <glyph glyph-name="W" unicode="W" horiz-adv-x="1065" 
d="M11 672q0 12 8 20t20 8h66q18 0 25 -17l229 -480l107 227l-105 227q-2 4 -2 12q0 12 8 20t20 8h66q8 0 15 -4.5t10 -12.5l53 -110l67 -141l109 -229l225 480q3 8 10 12.5t15 4.5h72q11 0 18.5 -8t7.5 -18q0 -8 -2 -11l-296 -645q-3 -8 -10 -12.5t-16 -4.5h-49
q-8 0 -15 4.5t-10 12.5l-125 271l-123 -268q-3 -8 -10 -12.5t-16 -4.5h-49q-8 0 -15 4.5t-10 12.5l-296 642q-2 4 -2 12zM570 645q0 10 4 17l10 21q3 8 10 12.5t15 4.5h72q11 0 18.5 -8t7.5 -18q0 -8 -2 -11l-62 -132q-3 -8 -11 -8q-7 0 -11 7l-47 96q-4 8 -4 19z" />
    <glyph glyph-name="X" unicode="X" horiz-adv-x="629" 
d="M430 439q-6 0 -11 5l-52 68q-4 8 -4 13q0 6 4 12l105 149l1 2q4 6 12.5 10t17.5 4h56h15q20 0 25 -6q3 -4 3 -8q0 -5 -11 -26q-1 0 -1 -2l-149 -216q-5 -5 -11 -5zM618 13q-8 -9 -17.5 -11t-27.5 -2h-52q-22 0 -36 18l-170 256l-168 -256q-4 -8 -14 -13t-19 -5h-60
q-34 0 -40 6q-4 3 -4 9q0 11 12 29l214 332l-196 284q-1 0 -1 1q-7 12 -7 21q0 4 2 8q5 8 12.5 10t15 2h10.5h50q22 0 34 -15l149 -208l10 -15l276 -390l20 -32q10 -16 7 -29z" />
    <glyph glyph-name="Y" unicode="Y" horiz-adv-x="604" 
d="M359 297q4 -7 4 -17v-256q0 -11 -7.5 -18t-18.5 -7h-71q-10 0 -17.5 7.5t-7.5 17.5v265l-228 376q-3 5 -3 11q0 3 2 9q4 7 11.5 11t16.5 4h54q42 0 57 -27l1 -1l137 -227zM594 676q0 -6 -3 -11l-179 -295q-3 -7 -12 -7q-8 0 -11 8l-46 95q-2 6 -2 10q0 7 3 11l108 185
h0.5t0.5 1q15 27 57 27h54q20 0 28 -15q2 -6 2 -9z" />
    <glyph glyph-name="Z" unicode="Z" horiz-adv-x="626" 
d="M580 106.5q6 -5.5 6 -13.5v-72q0 -8 -6 -13.5t-14 -5.5h-506q-9 0 -14.5 5.5t-5.5 13.5v72q0 13 3 22l2 4l394 471l82 102q6 8 17 8h28q8 0 14 -5.5t6 -13.5v-50v-15q1 -17 -1.5 -23.5t-14.5 -20.5l-384 -460h380q8 0 14 -5.5zM51.5 597.5q-5.5 5.5 -5.5 13.5v72
q0 8 6 13.5t14 5.5h344q8 0 11.5 -6.5t-1.5 -11.5l-69 -84q-6 -8 -17 -8h-268q-9 0 -14.5 5.5z" />
    <glyph glyph-name="a" unicode="a" horiz-adv-x="769" 
d="M280 669q13 30 44 29h120q35 0 47 -33l237 -645q1 -2 1 -6q0 -13 -14 -13h-76q-19 0 -26.5 4.5t-10.5 14.5l-36 99h-364l-36 -99q-3 -19 -34 -19h-77q-8 0 -12 5.5t-1 13.5zM527 227l-131 359q-3 9 -12 9q-8 0 -11 -8l-131 -360h285z" />
    <glyph glyph-name="b" unicode="b" horiz-adv-x="696" 
d="M207 3v0l-22 1l-82 3q-10 0 -16.5 7t-6.5 18v639q0 11 7 19t17 9l91 9l11 1v0q34 2 48 2q134 0 204 -61q37 -32 49.5 -67t12.5 -52q3 -54 -13 -94q35 -16 62 -40q30 -29 46 -63q13 -25 17 -46.5t4 -30.5q3 -61 -13 -106q-15 -44 -47 -74q-55 -53 -165 -70q-55 -7 -117 -7
q-48 0 -87 3zM328 98q115 7 166 50q41 35 36 92v1q0 6 -3 19.5t-12 29.5q-24 42 -80 57q-38 -24 -103 -35q-40 -5 -77 -5q-17 0 -55 2v-206q12 -2 37 -4t56 -2q23 0 35 1zM375 442q33 28 28 82v1q0 9 -5.5 25t-23.5 32q-24 21 -62 28q-26 6 -59 6q-17 0 -61 -4v-199
q32 -4 64 -4q83 0 119 33z" />
    <glyph glyph-name="c" unicode="c" horiz-adv-x="706" 
d="M239.5 39.5q-82.5 48.5 -131 131t-48.5 180.5t48.5 180.5t131 131t179.5 48.5q52 0 101 -14.5t90 -41.5q7 -4 12.5 -11t5.5 -17q0 -14 -13 -28q-7 -9 -23 -20t-36 -11q-15 0 -30 6t-18 7q-40 17 -89 17q-68 0 -125.5 -33.5t-91 -90.5t-33.5 -125t33.5 -125.5t91 -91
t125.5 -33.5q72 0 128 36l23 14q4 2 12.5 7.5t19.5 5.5t24 -13l32 -27q8 -10 8 -19t-8 -22q-51 -44 -112.5 -67t-126.5 -23q-97 0 -179.5 48.5z" />
    <glyph glyph-name="d" unicode="d" horiz-adv-x="722" 
d="M104 3h-3q-10 0 -16.5 6.5t-6.5 16.5v644q0 6 4.5 12t11.5 9q7 2 32 7t66 9.5t86 4.5q163 0 279.5 -79t116.5 -283q0 -23 -1 -35q0 -39 -21 -110t-112 -143.5t-276 -72.5q-68 0 -160 14zM456 142q59 43 79 92.5t23 87.5q1 12 1 33q0 146 -83.5 201t-194.5 55
q-31 0 -57.5 -3t-36.5 -6v-493q53 -10 102 -10q108 0 167 43z" />
    <glyph glyph-name="e" unicode="e" horiz-adv-x="636" 
d="M86.5 3.5q-6.5 6.5 -6.5 16.5v660q0 9 6.5 15.5t16.5 6.5h439q10 0 17 -6.5t7 -15.5v-69q0 -9 -7 -15.5t-17 -6.5h-348v-182h332q8 0 13 -5.5t5 -14.5v-69q0 -8 -5 -13.5t-13 -5.5h-332v-188h348q10 0 17 -6.5t7 -16.5v-68q0 -10 -7 -16.5t-17 -6.5h-439q-10 0 -16.5 6.5
z" />
    <glyph glyph-name="f" unicode="f" horiz-adv-x="607" 
d="M80 680q0 9 6.5 16t16.5 7h440q10 0 17 -6.5t7 -16.5v-69q0 -10 -7 -16.5t-17 -6.5h-347v-179h316q8 0 14 -6t6 -14v-70q0 -7 -6 -13.5t-14 -6.5h-316v-279q0 -9 -6.5 -16t-16.5 -7h-70q-9 0 -16 6.5t-7 16.5v660z" />
    <glyph glyph-name="g" unicode="g" horiz-adv-x="812" 
d="M238 45q-82 48 -130 130t-48 179t48 179t130 130t179 48q95 0 175 -45t128 -122q4 -7 4 -13t-3.5 -10t-4.5 -5l-67 -27q-1 0 -3.5 -1t-6.5 -1q-14 0 -24 15q-34 46 -86.5 73.5t-112.5 27.5q-67 0 -124 -33t-90 -89.5t-33 -123.5t33 -123.5t90 -90t124 -33.5
q59 0 110.5 27t86.5 73v53h-213q-7 0 -12 5.5t-5 12.5v74q0 7 5 12t12 5h344q8 0 13 -5t5 -12v-74q0 -8 -5 -13t-13 -5h-22v-251q0 -5 -4 -9t-10 -4h-82q-5 0 -9 4t-4 9v47q-79 -62 -196 -62q-97 0 -179 48z" />
    <glyph glyph-name="h" unicode="h" horiz-adv-x="719" 
d="M527.5 8q-7.5 8 -7.5 19v280h-321v-280q0 -11 -7.5 -18.5t-18.5 -7.5h-66q-11 0 -19 7.5t-8 18.5v647q0 11 8 19t19 8h66q10 0 18 -8t8 -19v-252h321v250q0 11 8 19.5t18 8.5h67q11 0 18.5 -7.5t7.5 -18.5v-647q0 -11 -7.5 -19t-18.5 -8h-67q-11 0 -18.5 8z" />
    <glyph glyph-name="i" unicode="i" horiz-adv-x="319" 
d="M107.5 7.5q-7.5 7.5 -7.5 18.5v653q0 11 7.5 18.5t18.5 7.5h68q10 0 17.5 -7.5t7.5 -18.5v-653q0 -11 -7.5 -18.5t-17.5 -7.5h-68q-11 0 -18.5 7.5z" />
    <glyph glyph-name="j" unicode="j" horiz-adv-x="278" 
d="M42.5 -221.5q-7.5 6.5 -7.5 8.5l-39 57q-1 1 -3.5 5t-2.5 10q0 14 15 25q39 32 52 68.5t13 58.5v672q0 9 7 15.5t15 6.5h74q9 0 15.5 -6.5t6.5 -15.5v-695v-2q-2 -131 -106 -206q-11 -8 -22 -8q-10 0 -17.5 6.5z" />
    <glyph glyph-name="k" unicode="k" horiz-adv-x="761" 
d="M80 678q0 23 21 23h68q10 0 16 -6t6 -17v-465l309 473q9 10 16 12.5t20 2.5h95q4 0 7 -3t3 -7t-3 -7l-175 -266l243 -397q5 -10 5 -13q0 -5 -4 -7t-8 -2h-95q-17 0 -29 20l-181 294l-197 -301l-10 -9q-8 -4 -18 -4h-68q-10 0 -15.5 7t-5.5 14v658z" />
    <glyph glyph-name="l" unicode="l" horiz-adv-x="573" 
d="M86.5 8q-6.5 6 -6.5 15v658q0 9 6.5 15t14.5 6h69q8 0 14 -6t6 -15v-569h307q7 0 11.5 -4.5t4.5 -11.5v-78q0 -7 -4.5 -11.5t-11.5 -4.5h-396q-8 0 -14.5 6z" />
    <glyph glyph-name="m" unicode="m" horiz-adv-x="881" 
d="M774.5 693.5q6.5 -6.5 6.5 -14.5v-658q0 -8 -6.5 -14.5t-14.5 -6.5h-69q-9 0 -15.5 6.5t-6.5 14.5v403l-169 -353q-2 -5 -7.5 -8t-11.5 -3v0h-80v0h-2v0q-6 0 -11 3t-7 8l-169 354v-404q0 -8 -6.5 -14.5t-15.5 -6.5h-69q-8 0 -14.5 6.5t-6.5 14.5v658q0 8 6.5 14.5
t14.5 6.5h69h1q6 0 11.5 -3t7.5 -8l231 -483l230 481v1l1 1q3 8 14 10q2 1 5 1h69q8 0 14.5 -6.5z" />
    <glyph glyph-name="n" unicode="n" horiz-adv-x="833" 
d="M100 675q0 11 7.5 18t17.5 7h68q10 0 17 -7l1 -1l404 -403v386q0 11 7.5 18t17.5 7h69q10 0 17 -7.5t7 -17.5v-650q0 -10 -7 -17.5t-17 -7.5h-69q-10 0 -17.5 7.5t-7.5 17.5v100q-6 2 -10 6l-388 388v-494q0 -10 -7 -17.5t-17 -7.5h-68q-10 0 -17.5 7.5t-7.5 17.5v650z
" />
    <glyph glyph-name="o" unicode="o" horiz-adv-x="835" 
d="M237.5 40.5q-82.5 48.5 -131 131t-48.5 180.5q0 97 48.5 179.5t131 131t180.5 48.5q97 0 179.5 -48.5t131 -131t48.5 -179.5q0 -98 -48.5 -180.5t-131 -131t-179.5 -48.5q-98 0 -180.5 48.5zM539 142q56 33 89 89.5t33 122.5q0 67 -33 123t-89 89t-123 33t-123.5 -33
t-89.5 -89t-33 -123q0 -66 33 -122.5t89.5 -89.5t123.5 -33t123 33z" />
    <glyph glyph-name="p" unicode="p" horiz-adv-x="651" 
d="M86 6q-6 6 -6 14v646q0 17 19 21q45 7 77.5 11.5t87.5 4.5q143 0 245 -58.5t102 -210.5q0 -16 -1 -25q0 -25 -20 -79t-96.5 -107t-226.5 -53q-31 0 -66 3v-153q0 -8 -6 -14t-15 -6h-80q-8 0 -14 6zM419.5 312q48.5 32 60 63t11.5 48q1 7 1 21q0 90 -65 124.5t-154 34.5
q-52 0 -87 -7v-310q48 -6 86 -6q99 0 147.5 32z" />
    <glyph glyph-name="q" unicode="q" horiz-adv-x="851" 
d="M237.5 40q-81.5 49 -129.5 132t-48 180q0 98 49 181.5t132.5 132.5t181.5 49t181.5 -49t132.5 -132.5t49 -181.5q0 -75 -29 -142t-81 -117h127q8 0 13 -5.5t5 -13.5v-67q0 -8 -5 -13t-13 -5h-384h-3q-97 2 -178.5 51zM546.5 138q57.5 34 91 91.5t33.5 125.5t-33.5 125.5
t-91 91t-125.5 33.5t-125.5 -33.5t-91 -91t-33.5 -125.5t33.5 -125.5t91 -91.5t125.5 -34t125.5 34z" />
    <glyph glyph-name="r" unicode="r" horiz-adv-x="671" 
d="M80 666q0 17 19 21q45 7 77.5 11.5t87.5 4.5q143 0 245 -58.5t102 -210.5q0 -16 -1 -25q0 -11 -6.5 -39.5t-30 -68t-70.5 -71.5q59 -42 74 -105.5t15 -105.5q0 -7 -7 -12t-15 -5h-68h-8.5t-13 5.5t-7.5 17.5q-5 85 -31 119t-56 38q-51 -12 -118 -12q-31 0 -67 3v-153
q0 -8 -6 -14t-15 -6h-80q-8 0 -14 6t-6 14v646zM272 280q99 0 147.5 32t60 63t11.5 48q1 7 1 21q0 90 -65 124.5t-154 34.5q-52 0 -87 -7v-310q48 -6 86 -6z" />
    <glyph glyph-name="s" unicode="s" horiz-adv-x="647" 
d="M572 99q-25 -44 -73 -75q-30 -18 -74 -30t-103 -11h-12q-50 3 -98 17t-85 37q-49 27 -71 64q-6 8 -6 16t4 14.5t11 10.5q6 4 21 15t26 17q10 6 20 5q8 -4 15 -12q13 -22 40 -38q31 -19 71 -29t80 -10q65 0 105 25q23 14 33 33t10 48q0 23 -10 37.5t-38.5 27t-83.5 25.5
q-83 19 -144 43q-67 27 -100.5 76t-33.5 106q0 29 7 51q18 64 77 108.5t147 44.5q11 0 33 -2q90 -9 143 -45.5t78 -85.5q5 -9 10 -22q2 -3 2 -10t-4 -13.5t-10 -9.5l-52 -26q-8 -5 -23 -3q-10 6 -13 15q-2 6 -9 20q-21 36 -60 55t-94 19q-44 0 -79 -19q-30 -19 -38 -52
q-3 -10 -3 -23q0 -26 16 -48t49 -35q46 -17 131 -39q48 -11 81 -22.5t58 -27.5q74 -45 74 -145q0 -53 -25 -97z" />
    <glyph glyph-name="t" unicode="t" horiz-adv-x="605" 
d="M248.5 5.5q-6.5 6.5 -6.5 14.5v573h-184q-7 0 -12.5 5.5t-5.5 13.5v74q0 7 5.5 12.5t12.5 5.5h487q8 0 14 -5t6 -13v-74q0 -8 -6 -13.5t-14 -5.5h-189v-573q0 -9 -7 -15t-16 -6h-70q-8 0 -14.5 6.5z" />
    <glyph glyph-name="u" unicode="u" horiz-adv-x="700" 
d="M630 245v-3q0 -72 -37.5 -133t-101.5 -97t-140 -36t-140.5 36t-102 97t-37.5 133v4l-1 435q0 8 6 13.5t14 5.5h81q8 0 13.5 -5.5t5.5 -13.5v-221l2 -220q0 -40 21.5 -74.5t58 -55t79.5 -20.5t79.5 20.5t58 56t21.5 76.5l1 218v214q0 10 5.5 18t18.5 7h75q8 0 13.5 -5.5
t5.5 -13.5l1 -435v-1z" />
    <glyph glyph-name="v" unicode="v" horiz-adv-x="777" 
d="M729.5 695q7.5 -8 7.5 -18q0 -8 -2 -11l-297 -649q-7 -17 -25 -17h-49q-8 0 -15 4.5t-10 12.5l-296 646q-2 4 -2 12q0 12 8 20t20 8h65q9 0 16 -4.5t10 -12.5l229 -483l224 483q3 8 10 12.5t15 4.5h73q11 0 18.5 -8z" />
    <glyph glyph-name="w" unicode="w" horiz-adv-x="1061" 
d="M10 672q0 12 8 20t20 8h65q9 0 16 -4.5t10 -12.5l227 -480l107 231l-102 224q-2 4 -2 11q0 12 8 20t20 8h65q9 0 16 -4.5t10 -12.5l50 -106l51 109q3 8 10 12.5t15 4.5h72q11 0 18.5 -8t7.5 -18q0 -8 -2 -11l-105 -230l110 -233l223 480q3 8 10 12.5t15 4.5h72
q11 0 18.5 -8t7.5 -18q0 -8 -2 -11l-295 -645q-3 -8 -10 -12.5t-15 -4.5h-49q-8 0 -15 4.5t-10 12.5l-126 275l-124 -272q-7 -17 -25 -17h-49q-8 0 -14.5 4.5t-9.5 12.5l-295 642q-2 4 -2 12z" />
    <glyph glyph-name="x" unicode="x" horiz-adv-x="629" 
d="M619 14q-8 -9 -18 -11t-28 -2h-52q-23 0 -35 18l-171 256l-167 -256q-5 -8 -14.5 -13t-19.5 -5h-60q-34 0 -40 6q-4 3 -4 9q0 11 12 29l214 332l-196 284q-8 11 -8 22q0 4 2 8q5 8 12.5 10t15 2h10.5h50q22 0 34 -15l159 -223l157 223q4 7 12.5 11t18.5 4h56h15
q20 0 25 -6q4 -4 4 -8t-5.5 -13.5t-7.5 -13.5l-195 -284l216 -335v0q11 -14 8 -29z" />
    <glyph glyph-name="y" unicode="y" horiz-adv-x="604" 
d="M594 676q0 -6 -3 -11l-228 -376v-265q0 -11 -7.5 -18t-18.5 -7h-70q-11 0 -18.5 7.5t-7.5 17.5v265l-228 376q-3 5 -3 11q0 3 2 9q4 7 11.5 11t16.5 4h54q42 0 57 -27l1 -1l152 -252l148 252h0.5t0.5 1q15 27 57 27h54q20 0 28 -15q2 -6 2 -9z" />
    <glyph glyph-name="z" unicode="z" horiz-adv-x="651" 
d="M55.5 594.5q5.5 -5.5 13.5 -5.5h385l-396 -475q-5 -7 -5 -20v-6v-73q0 -8 5.5 -13.5t13.5 -5.5h509q8 0 14 5.5t6 13.5v73q0 8 -6 13.5t-14 5.5h-383l387 464q12 15 14.5 21.5t1.5 25.5v2v61q0 8 -6 13.5t-14 5.5h-512q-8 0 -13.5 -5.5t-5.5 -13.5v-73q0 -8 5.5 -13.5z
" />
    <glyph glyph-name="zero" unicode="0" 
 />
    <glyph glyph-name="one" unicode="1" 
 />
    <glyph glyph-name="two" unicode="2" 
 />
    <glyph glyph-name="three" unicode="3" 
 />
    <glyph glyph-name="four" unicode="4" 
 />
    <glyph glyph-name="five" unicode="5" 
 />
    <glyph glyph-name="six" unicode="6" 
 />
    <glyph glyph-name="seven" unicode="7" 
 />
    <glyph glyph-name="eight" unicode="8" 
 />
    <glyph glyph-name="nine" unicode="9" 
 />
    <glyph glyph-name="asterisk" unicode="*" horiz-adv-x="359" 
d="M319 538q0 -7 -2 -10l-25 -46q-7 -10 -15 -10q-5 0 -12 5l-69 58l2 -1q2 0 3 2t1 4l18 -84v1l1 -5q0 -7 -5 -12t-12 -5h-55q-7 0 -12 6.5t-4 13.5l14 75v2q2 9 32 19l-79 -79q-5 -3 -10 -3q-11 0 -15 8l-30 47v-1q-3 5 -3 10q0 12 10 16l78 30q0 -10 -3 -10l-78 24
q-9 5 -9 16q0 6 2 9l27 49q5 9 16 9q7 0 12 -5v0l58 -49q2 -4 2 -9q0 -12 -6 -28l-20 111q0 6 5 10.5t12 4.5h56q8 0 13 -7t3 -15v1l-18 -86v-1v2q0 3 -2.5 4.5t-4.5 -0.5l64 64v0q7 5 13 5q9 0 14 -8l29 -46v1q3 -4 3 -9t-3 -9.5t-7 -6.5l-76 -31l-3 -1q5 0 6 4t-3 5
l79 -26q8 -5 8 -13z" />
    <glyph glyph-name="colon" unicode=":" horiz-adv-x="212" 
d="M165 7.5q7 7.5 7 18.5v81q0 11 -7 18t-18 7h-81q-11 0 -18.5 -7t-7.5 -18v-81q0 -11 7.5 -18.5t18.5 -7.5h81q11 0 18 7.5zM165 349.5q7 7.5 7 18.5v81q0 11 -7 18t-18 7h-81q-11 0 -18.5 -7t-7.5 -18v-81q0 -11 7.5 -18.5t18.5 -7.5h81q11 0 18 7.5z" />
    <glyph glyph-name="comma" unicode="," horiz-adv-x="211" 
d="M171 26v-4q-4 -42 -24 -66t-44 -36q-8 -2 -12 -2q-8 0 -14 3l-8 5q-4 1 -4 7t5 8q41 19 41 60h-45q-12 0 -19 7.5t-7 17.5v81q0 11 7 18t19 7h79q11 0 18.5 -7t7.5 -18v-81z" />
    <glyph glyph-name="exclam" unicode="!" horiz-adv-x="334" 
d="M225 7.5q7 7.5 7 18.5v81q0 11 -7 18t-18 7h-81q-11 0 -18.5 -7t-7.5 -18v-81q0 -11 7.5 -18.5t18.5 -7.5h81q11 0 18 7.5zM125 700h86q23 0 23 -23l-10 -470q0 -10 -6 -16.5t-17 -6.5l-69 1q-10 0 -16.5 6.5t-6.5 16.5l-7 469q0 23 23 23z" />
    <glyph glyph-name="exclamdown" unicode="&#xa1;" horiz-adv-x="214" 
d="M49 692.5q-7 -7.5 -7 -18.5v-81q0 -10 7.5 -17.5t17.5 -7.5h81q11 0 18.5 7t7.5 18v81q0 11 -7.5 18.5t-18.5 7.5h-81q-11 0 -18 -7.5zM149 0h-86q-23 0 -23 23l10 470q0 11 6.5 17t16.5 6l69 -1q11 0 17 -6t6 -17l7 -469q0 -23 -23 -23z" />
    <glyph glyph-name="numbersign" unicode="#" horiz-adv-x="802" 
d="M742 509v-53q0 -19 -8.5 -26t-23.5 -7h-98l-46 -130h95q15 0 23.5 -7t8.5 -26v-53q0 -21 -8 -27t-24 -6h-136l-52 -145q-4 -12 -15.5 -20.5t-22.5 -8.5h-57q-14 0 -23 10.5t-9 22.5q0 3 2 9l46 132h-117l-51 -145q-4 -12 -15.5 -20.5t-22.5 -8.5h-59q-14 0 -22 10t-8 23
q0 3 2 9l46 132h-54q-16 0 -24.5 6.5t-8.5 26.5v53q0 19 9 26t24 7h96l45 130h-92q-16 0 -24.5 6.5t-8.5 26.5v53q0 19 8.5 26t24.5 7h134l45 128q5 11 16.5 20t22.5 9h74q9 0 14.5 -5.5t5.5 -13.5q0 -4 -2 -10l-45 -128h116l45 128q5 11 16.5 20t22.5 9h74q9 0 14.5 -5.5
t5.5 -13.5q0 -4 -2 -10l-45 -128h56q32 0 32 -33zM482 423h-117l-46 -130h117z" />
    <glyph glyph-name="period" unicode="." horiz-adv-x="232" 
d="M175 7.5q7 7.5 7 18.5v81q0 11 -7 18t-18 7h-81q-11 0 -18.5 -7t-7.5 -18v-81q0 -11 7.5 -18.5t18.5 -7.5h81q11 0 18 7.5z" />
    <glyph glyph-name="question" unicode="?" horiz-adv-x="676" 
d="M395 7.5q7 7.5 7 17.5v78q0 10 -7.5 17t-17.5 7h-81q-11 0 -18.5 -7t-7.5 -17v-78q0 -11 7.5 -18t18.5 -7h81q11 0 18 7.5zM387.5 171q5.5 6 5.5 14q0 33 8.5 53.5t21.5 33t41 34.5q28 20 48 38.5t36 44.5q28 41 28 94q0 58 -33 112q-35 58 -95 89.5t-131 28.5
q-129 -6 -198 -109q-28 -38 -38 -79q-1 -2 -1 -5q0 -7 4 -12.5t11 -6.5l77 -13h5q8 0 14 3.5t8 10.5q8 23 22 42q37 52 101 52q46 2 75 -17.5t42 -41.5q17 -28 17 -54q0 -19 -10 -34q-7 -11 -16.5 -20t-21 -17.5t-17.5 -13.5q-35 -26 -59.5 -50.5t-42 -66t-17.5 -101.5
q1 -8 6.5 -13t13.5 -4l82 1q8 1 13.5 7z" />
    <glyph glyph-name="questiondown" unicode="&#xbf;" horiz-adv-x="645" 
d="M260.5 706q-7.5 -7 -7.5 -18v-78q0 -10 7.5 -17t17.5 -7h81q11 0 18.5 7t7.5 17v78q0 11 -7.5 18t-18.5 7h-81q-10 0 -17.5 -7zM267.5 542q-5.5 -6 -5.5 -14q0 -33 -8.5 -53.5t-21.5 -33t-41 -34.5q-28 -20 -48 -38.5t-36 -44.5q-28 -41 -28 -94q0 -58 33 -112
q35 -58 95 -89.5t131 -28.5q129 6 198 109q28 38 38 79q1 2 1 5q0 7 -4 12.5t-11 6.5l-77 13h-5q-8 0 -14 -3.5t-8 -10.5q-8 -23 -22 -42q-37 -52 -101 -52q-46 -2 -75 17.5t-42 41.5q-17 28 -17 54q0 19 10 34q7 11 16.5 20t21 17.5t17.5 13.5q35 26 59.5 50.5t42 66
t17.5 101.5q-1 8 -6.5 13t-13.5 4l-82 -1q-8 -1 -13.5 -7z" />
    <glyph glyph-name="quotedbl" unicode="&#x22;" horiz-adv-x="394" 
d="M93 700h48q23 0 23 -23v-185q0 -23 -23 -23h-48q-23 0 -23 23v185q0 23 23 23zM253 703h48q23 0 23 -23v-185q0 -23 -23 -23h-48q-23 0 -23 23v185q0 23 23 23z" />
    <glyph glyph-name="quotesingle" unicode="'" horiz-adv-x="154" 
d="M53 700h48q23 0 23 -23v-185q0 -23 -23 -23h-48q-23 0 -23 23v185q0 23 23 23z" />
    <glyph glyph-name="semicolon" unicode=";" horiz-adv-x="212" 
d="M172 26v-4q-4 -42 -24 -66t-44 -36q-8 -2 -12 -2q-8 0 -14 3l-8 5q-4 1 -4 7t5 8q41 19 41 60h-45q-12 0 -19 7.5t-7 17.5v81q0 11 7 18t19 7h79q11 0 18.5 -7t7.5 -18v-81zM165 348.5q7 7.5 7 18.5v81q0 11 -7 18t-18 7h-81q-11 0 -18.5 -7t-7.5 -18v-81
q0 -11 7.5 -18.5t18.5 -7.5h81q11 0 18 7.5z" />
    <glyph glyph-name="slash" unicode="/" horiz-adv-x="480" 
d="M176.5 8.5q11.5 8.5 15.5 20.5l226 641q2 6 2 10q0 8 -5.5 13.5t-14.5 5.5h-74q-11 0 -22.5 -9t-16.5 -20l-225 -641q-2 -8 -2 -10q0 -8 5.5 -13.5t14.5 -5.5h74q11 0 22.5 8.5z" />
    <glyph glyph-name="underscore" unicode="_" horiz-adv-x="515" 
d="M486.5 104.5q8.5 -8.5 8.5 -20.5v-56q0 -11 -8.5 -19.5t-19.5 -8.5h-419q-12 0 -20 8.5t-8 19.5v56q0 12 8 20.5t20 8.5h419q11 0 19.5 -8.5z" />
    <glyph glyph-name="parenleft" unicode="(" horiz-adv-x="383" 
d="M316.5 -129.5q6.5 7.5 6.5 16.5q0 2 -2 8q-105 228 -105 454q0 224 104 458l2 8q0 10 -6.5 17.5t-14.5 7.5h-75q-13 0 -20 -14q-106 -229 -106 -474q0 -246 106 -475q7 -14 20 -14h75q9 0 15.5 7.5z" />
    <glyph glyph-name="parenright" unicode=")" horiz-adv-x="383" 
d="M157 -137q13 0 20 14q106 225 106 475q0 249 -106 474q-7 14 -20 14h-75q-8 0 -14.5 -7.5t-6.5 -17.5l2 -8q104 -234 104 -458q0 -226 -105 -454q-2 -6 -2 -8q0 -9 6.5 -16.5t15.5 -7.5h75z" />
    <glyph glyph-name="emdash" unicode="&#x2014;" horiz-adv-x="634" 
d="M83 407h468q23 0 23 -23v-62q0 -23 -23 -23h-468q-23 0 -23 23v62q0 23 23 23z" />
    <glyph glyph-name="endash" unicode="&#x2013;" horiz-adv-x="458" 
d="M83 407h292q23 0 23 -23v-63q0 -23 -23 -23h-292q-23 0 -23 23v63q0 23 23 23z" />
    <glyph glyph-name="hyphen" unicode="-" horiz-adv-x="367" 
d="M83 408h201q23 0 23 -23v-64q0 -23 -23 -23h-201q-23 0 -23 23v64q0 23 23 23z" />
    <glyph glyph-name="guillemotleft" unicode="&#xab;" horiz-adv-x="606" 
d="M288 215q0 -14 -12 -23l-33 -22q-6 -5 -17 -5q-16 0 -24 11l-137 168q-5 10 -5 20q0 13 7 20l134 166q8 12 24 12q11 0 18 -5l32 -26q9 -7 9 -21q0 -10 -6 -18l-101 -128l105 -133q6 -7 6 -16zM518 215q0 -14 -12 -22l-33 -23q-6 -5 -17 -5q-16 0 -24 11l-137 168
q-5 10 -5 20q0 13 6 20l135 166q8 12 24 12q10 0 18 -5l32 -26q9 -7 9 -21q0 -10 -6 -18l-101 -128l105 -133q6 -7 6 -16z" />
    <glyph glyph-name="guillemotright" unicode="&#xbb;" horiz-adv-x="606" 
d="M429 364l-101 128q-6 8 -6 18q0 14 9 21l32 26q8 5 18 5q17 0 24 -12l134 -166q7 -7 7 -20q0 -10 -5 -20l-137 -168q-8 -11 -24 -11q-11 0 -17 5l-33 22q-12 9 -12 23q0 9 6 16zM199 364l-101 128q-6 8 -6 18q0 14 9 21l32 26q7 5 18 5q17 0 24 -12l135 -166q6 -7 6 -20
q0 -10 -5 -20l-137 -168q-8 -11 -24 -11q-11 0 -17 5l-33 23q-12 8 -12 22q0 9 6 16z" />
    <glyph glyph-name="guilsinglleft" unicode="&#x2039;" horiz-adv-x="376" 
d="M288 215q0 -14 -12 -23l-33 -22q-6 -5 -17 -5q-16 0 -24 11l-137 168q-5 10 -5 20q0 13 7 20l134 166q8 12 24 12q11 0 18 -5l32 -26q9 -7 9 -21q0 -10 -6 -18l-101 -128l105 -133q6 -7 6 -16z" />
    <glyph glyph-name="guilsinglright" unicode="&#x203a;" horiz-adv-x="376" 
d="M199 364l-101 128q-6 8 -6 18q0 14 9 21l32 26q7 5 18 5q17 0 24 -12l134 -166q7 -7 7 -20q0 -10 -5 -20l-137 -168q-8 -11 -24 -11q-11 0 -17 5l-33 22q-12 9 -12 23q0 9 6 16z" />
    <glyph glyph-name="quotedblbase" unicode="&#x201e;" horiz-adv-x="400" 
d="M229 105v4q4 42 24 66t44 36q8 2 12 2q8 0 14 -3l8 -5q4 -1 4 -7t-5 -8q-41 -19 -41 -60h45q12 0 19 -7.5t7 -17.5v-81q0 -11 -7 -18t-19 -7h-79q-11 0 -18.5 7t-7.5 18v81zM50 105v4q4 42 24 66t44 36q8 2 12 2q8 0 14 -3l8 -5q4 -1 4 -7t-5 -8q-41 -19 -41 -60h45
q12 0 19 -7.5t7 -17.5v-81q0 -11 -7 -18t-19 -7h-79q-11 0 -18.5 7t-7.5 18v81z" />
    <glyph glyph-name="quotedblleft" unicode="&#x201c;" horiz-adv-x="364" 
d="M138 480q6 5 7 13l32 182q2 10 -4.5 18t-17.5 8h-50q-9 0 -15 -5t-7 -13l-32 -181q-2 -11 5 -19t18 -8h49q9 0 15 5zM274 480q7 5 8 13l32 182q2 10 -5 18t-18 8h-49q-8 0 -15 -5t-8 -13l-32 -181q-2 -11 5.5 -19t17.5 -8h49q8 0 15 5z" />
    <glyph glyph-name="quotedblright" unicode="&#x201d;" horiz-adv-x="364" 
d="M138 480q6 5 7 13l32 182q2 10 -4.5 18t-17.5 8h-50q-9 0 -15 -5t-7 -13l-32 -181q-2 -11 5 -19t18 -8h49q9 0 15 5zM274 480q7 5 8 13l32 182q2 10 -5 18t-18 8h-49q-8 0 -15 -5t-8 -13l-32 -181q-2 -11 5.5 -19t17.5 -8h49q8 0 15 5z" />
    <glyph glyph-name="quoteleft" unicode="&#x2018;" horiz-adv-x="227" 
d="M138 480q6 5 7 13l32 182q2 10 -4.5 18t-17.5 8h-50q-9 0 -15 -5t-7 -13l-32 -181q-2 -11 5 -19t18 -8h49q9 0 15 5z" />
    <glyph glyph-name="quoteright" unicode="&#x2019;" horiz-adv-x="227" 
d="M138 480q6 5 7 13l32 182q2 10 -4.5 18t-17.5 8h-50q-9 0 -15 -5t-7 -13l-32 -181q-2 -11 5 -19t18 -8h49q9 0 15 5z" />
    <glyph glyph-name="quotesinglbase" unicode="&#x201a;" horiz-adv-x="391" 
d="M171 596v-4q-4 -42 -24 -66t-44 -36q-8 -2 -12 -2q-8 0 -14 3l-8 5q-4 1 -4 7t5 8q41 19 41 60h-45q-12 0 -19 7.5t-7 17.5v81q0 11 7 18t19 7h79q11 0 18.5 -7t7.5 -18v-81zM341 596v-4q-4 -42 -24 -66t-44 -36q-8 -2 -12 -2q-8 0 -14 3l-8 5q-4 1 -4 7t5 8q41 19 41 60
h-45q-12 0 -19 7.5t-7 17.5v81q0 11 7 18t19 7h79q11 0 18.5 -7t7.5 -18v-81z" />
    <glyph glyph-name="dollar" unicode="$" horiz-adv-x="647" 
d="M572 99q-25 -44 -73 -75q-30 -18 -74 -30t-103 -11h-12q-50 3 -98 17t-85 37q-49 27 -71 64q-6 8 -6 16t4 14.5t11 10.5q6 4 21 15t26 17q10 6 20 5q8 -4 15 -12q13 -22 40 -38q31 -19 71 -29t80 -10q65 0 105 25q23 14 33 33t10 48q0 23 -10 37.5t-38.5 27t-83.5 25.5
q-83 19 -144 43q-67 27 -100.5 76t-33.5 106q0 29 7 51q18 64 77 108.5t147 44.5q11 0 33 -2q90 -9 143 -45.5t78 -85.5q5 -9 10 -22q2 -3 2 -10t-4 -13.5t-10 -9.5l-52 -26q-8 -5 -23 -3q-10 6 -13 15q-2 6 -9 20q-21 36 -60 55t-94 19q-44 0 -79 -19q-30 -19 -38 -52
q-3 -10 -3 -23q0 -26 16 -48t49 -35q46 -17 131 -39q48 -11 81 -22.5t58 -27.5q74 -45 74 -145q0 -53 -25 -97zM260 793q6 7 15 7h89q9 0 15 -7t6 -18v-89q0 -11 -6 -18t-15 -7h-89q-9 0 -15 7t-6 18v89q0 11 6 18zM271 29q6 7 15 7h89q9 0 15 -7t6 -18v-89q0 -11 -6 -18
t-15 -7h-89q-9 0 -15 7t-6 18v89q0 11 6 18z" />
    <glyph glyph-name="Euro" unicode="&#x20ac;" 
d="M239.5 39.5q-82.5 48.5 -131 131t-48.5 180.5t48.5 180.5t131 131t179.5 48.5q52 0 101 -14.5t90 -41.5q7 -4 12.5 -11t5.5 -17q0 -14 -13 -28q-7 -9 -23 -20t-36 -11q-15 0 -30 6t-18 7q-40 17 -89 17q-68 0 -125.5 -33.5t-91 -90.5t-33.5 -125t33.5 -125.5t91 -91
t125.5 -33.5q72 0 128 36l23 14q4 2 12.5 7.5t19.5 5.5t24 -13l32 -27q8 -10 8 -19t-8 -22q-51 -44 -112.5 -67t-126.5 -23q-97 0 -179.5 48.5zM0 490h407q23 0 23 -23v-53q0 -23 -23 -23h-407q-23 0 -23 23v53q0 23 23 23zM1 323h407q23 0 23 -23v-53q0 -23 -23 -23h-407
q-23 0 -23 23v53q0 23 23 23z" />
    <glyph glyph-name="greaterequal" unicode="&#x2265;" horiz-adv-x="589" 
d="M451 335l34 34q12 14 12 31q0 19 -12 32l-191 204l1 -1q-14 17 -38 17h-82q-9 0 -15 -6t-6 -15t5 -15l262 -280v0q7 -9 16 -9q8 0 14 7v1zM438 483l-272 -288q-7 -7 -7 -17q0 -11 7.5 -19.5t18.5 -8.5h72q21 0 37 16l192 205q10 13 10 31q0 19 -11 30zM87.5 72
q7.5 8 18.5 8h377q11 0 18.5 -7.5t7.5 -18.5v-53q0 -11 -7.5 -18.5t-18.5 -7.5h-377q-11 0 -18.5 7.5t-7.5 18.5v53q0 10 7.5 18z" />
    <glyph glyph-name="lessequal" unicode="&#x2264;" horiz-adv-x="589" 
d="M152 327q9 0 16 9v0l262 280q5 6 5 15t-6 15t-15 6h-82q-24 0 -38 -17l1 1l-191 -204q-12 -13 -12 -32q0 -17 12 -31l34 -34v-1q6 -7 14 -7zM93 402q0 -18 10 -31l192 -205q16 -16 37 -16h72q11 0 18.5 8.5t7.5 19.5q0 10 -7 17l-272 288l-47 -51q-11 -11 -11 -30zM509 1
q0 -11 -7.5 -18.5t-18.5 -7.5h-377q-10 0 -18 7.5t-8 18.5v53q0 11 8 18.5t18 7.5h377q11 0 18.5 -8t7.5 -18v-53z" />
    <glyph glyph-name="plusminus" unicode="&#xb1;" horiz-adv-x="453" 
d="M64.5 509q5.5 5 12.5 5h297q8 0 13 -5t5 -13v-70q0 -8 -5.5 -13.5t-12.5 -5.5h-297q-7 0 -12.5 5.5t-5.5 12.5v71q0 8 5.5 13zM272 620q5 -5 5 -13v-297q0 -7 -5 -12.5t-13 -5.5h-70q-8 0 -13.5 5.5t-5.5 12.5v297q0 8 5.5 13t12.5 5h71q8 0 13 -5zM65.5 207
q5.5 5 12.5 5h297q8 0 13 -5t5 -13v-70q0 -8 -5.5 -13.5t-12.5 -5.5h-297q-7 0 -12.5 5.5t-5.5 12.5v71q0 8 5.5 13z" />
    <glyph glyph-name="approxequal" unicode="&#x2248;" 
 />
    <glyph glyph-name="percent" unicode="%" horiz-adv-x="1040" 
d="M290 5.5q-5 4.5 -5 11.5q0 5 3 11l327 650q5 9 15 16t20 7h82q17 0 17 -15q0 -6 -3 -12l-327 -650q-5 -9 -14.5 -16t-19.5 -7h-82q-8 0 -13 4.5zM303.5 475q24.5 24 24.5 58t-24.5 58t-58.5 24t-58 -24t-24 -58t24 -58t58 -24t58.5 24zM163 383.5q-39 22.5 -61.5 61.5
t-22.5 86q0 46 22.5 84.5t61.5 61.5t86 23q46 0 84.5 -23t61.5 -61.5t23 -84.5q0 -47 -23 -86t-61.5 -61.5t-84.5 -22.5q-47 0 -86 22.5zM844.5 115q24.5 24 24.5 58t-24.5 58t-58.5 24t-58 -24t-24 -58t24 -58t58 -24t58.5 24zM704 23.5q-39 22.5 -61.5 61.5t-22.5 86
q0 46 22.5 84.5t61.5 61.5t86 23q46 0 84.5 -23t61.5 -61.5t23 -84.5q0 -47 -23 -86t-61.5 -61.5t-84.5 -22.5q-47 0 -86 22.5z" />
    <glyph glyph-name="perthousand" unicode="&#x2030;" horiz-adv-x="1450" 
d="M290 5.5q-5 4.5 -5 11.5q0 5 3 11l327 650q5 9 15 16t20 7h82q17 0 17 -15q0 -6 -3 -12l-327 -650q-5 -9 -14.5 -16t-19.5 -7h-82q-8 0 -13 4.5zM303.5 475q24.5 24 24.5 58t-24.5 58t-58.5 24t-58 -24t-24 -58t24 -58t58 -24t58.5 24zM163 383.5q-39 22.5 -61.5 61.5
t-22.5 86q0 46 22.5 84.5t61.5 61.5t86 23q46 0 84.5 -23t61.5 -61.5t23 -84.5q0 -47 -23 -86t-61.5 -61.5t-84.5 -22.5q-47 0 -86 22.5zM844.5 115q24.5 24 24.5 58t-24.5 58t-58.5 24t-58 -24t-24 -58t24 -58t58 -24t58.5 24zM704 23.5q-39 22.5 -61.5 61.5t-22.5 86
q0 46 22.5 84.5t61.5 61.5t86 23q46 0 84.5 -23t61.5 -61.5t23 -84.5q0 -47 -23 -86t-61.5 -61.5t-84.5 -22.5q-47 0 -86 22.5zM1255.5 108q24.5 24 24.5 58t-24.5 58t-58.5 24t-58 -24t-24 -58t24 -58t58 -24t58.5 24zM1115 16.5q-39 22.5 -61.5 61.5t-22.5 86
q0 46 22.5 84.5t61.5 61.5t86 23q46 0 84.5 -23t61.5 -61.5t23 -84.5q0 -47 -23 -86t-61.5 -61.5t-84.5 -22.5q-47 0 -86 22.5z" />
    <glyph glyph-name="paragraph" unicode="&#xb6;" horiz-adv-x="655" 
d="M555 25q0 -10 -7 -16.5t-16 -6.5h-64q-10 0 -16.5 6.5t-6.5 16.5v653q0 9 6.5 16t16.5 7h64q9 0 16 -7t7 -16v-653zM391 693q7 -7 7 -16v-653q0 -10 -7 -16.5t-17 -6.5h-66q-9 0 -16 6.5t-7 16.5v251q-61 1 -112.5 30t-82 77.5t-30.5 105.5q0 56 30.5 104.5t82 77.5
t112.5 30v0h2h2v0h85q10 0 17 -7z" />
    </font>
</defs>
</svg>
